<svg version="1.1" xmlns="http://www.w3.org/2000/svg" xmlns:xlink="http://www.w3.org/1999/xlink" width="24px" height="24px" viewBox="0,0,256,256"><g fill="#101095" fill-rule="nonzero" stroke="none" stroke-width="1" stroke-linecap="butt" stroke-linejoin="miter" stroke-miterlimit="10" stroke-dasharray="" stroke-dashoffset="0" font-family="none" font-weight="none" font-size="none" text-anchor="none" style="mix-blend-mode: normal"><g transform="translate(0,0) scale(10.66667,10.66667)"><path d="M17,20h-14.5c-1.38003,-0.00165 -2.49835,-1.11997 -2.5,-2.5v-15c0,-1.378 1.122,-2.5 2.5,-2.5h8c0.2137,0.00001 0.40376,0.13583 0.473,0.338l6.5,19c0.05135,0.1527 0.02629,0.32077 -0.06736,0.45185c-0.09366,0.13108 -0.24454,0.20925 -0.40564,0.21015zM2.5,1c-0.827,0 -1.5,0.673 -1.5,1.5v15c0,0.827 0.673,1.5 1.5,1.5h13.8l-6.157,-18z"></path><path d="M21.5,24h-8c-0.20825,0 -0.3947,-0.12908 -0.468,-0.324l-1.5,-4c-0.0972,-0.25847 0.03353,-0.5468 0.292,-0.644c0.25847,-0.0972 0.5468,0.03353 0.644,0.292l1.379,3.676h7.653c0.827,0 1.5,-0.673 1.5,-1.5v-15c0,-0.827 -0.673,-1.5 -1.5,-1.5h-9.5c-0.27614,0 -0.5,-0.22386 -0.5,-0.5c0,-0.27614 0.22386,-0.5 0.5,-0.5h9.5c1.378,0 2.5,1.122 2.5,2.5v15c0,1.378 -1.122,2.5 -2.5,2.5z"></path><path d="M13.5,24c-0.19644,0.00014 -0.37476,-0.11475 -0.45581,-0.29368c-0.08106,-0.17893 -0.04983,-0.38875 0.07981,-0.53632l3.5,-4c0.18198,-0.20794 0.49806,-0.22898 0.706,-0.047c0.20794,0.18198 0.22898,0.49806 0.047,0.706l-3.5,4c-0.09522,0.10857 -0.23259,0.17088 -0.377,0.171zM9.5,14c-0.21149,0.00033 -0.40022,-0.1327 -0.471,-0.332l-2.029,-5.681l-2.029,5.681c-0.09278,0.26013 -0.37887,0.39578 -0.639,0.303c-0.26013,-0.09278 -0.39578,-0.37887 -0.303,-0.639l2.5,-7c0.142,-0.398 0.8,-0.398 0.941,0l2.5,7c0.05457,0.15296 0.03145,0.3229 -0.06201,0.45572c-0.09345,0.13282 -0.24559,0.21198 -0.40799,0.21228z"></path><path d="M8,11h-2c-0.27614,0 -0.5,-0.22386 -0.5,-0.5c0,-0.27614 0.22386,-0.5 0.5,-0.5h2c0.27614,0 0.5,0.22386 0.5,0.5c0,0.27614 -0.22386,0.5 -0.5,0.5zM21.5,11h-7c-0.27614,0 -0.5,-0.22386 -0.5,-0.5c0,-0.27614 0.22386,-0.5 0.5,-0.5h7c0.27614,0 0.5,0.22386 0.5,0.5c0,0.27614 -0.22386,0.5 -0.5,0.5z"></path><path d="M17.5,11c-0.27614,0 -0.5,-0.22386 -0.5,-0.5v-1c0,-0.27614 0.22386,-0.5 0.5,-0.5c0.27614,0 0.5,0.22386 0.5,0.5v1c0,0.27614 -0.22386,0.5 -0.5,0.5zM16,17c-0.21878,0.00261 -0.41364,-0.13789 -0.48028,-0.3463c-0.06663,-0.20841 0.01056,-0.43589 0.19028,-0.5607c2.189,-1.555 3.79,-4.727 3.79,-5.592c0,-0.27614 0.22386,-0.5 0.5,-0.5c0.27614,0 0.5,0.22386 0.5,0.5c0,1.318 -1.927,4.785 -4.21,6.408c-0.08509,0.05928 -0.1863,0.09104 -0.29,0.091z"></path><path d="M20,18c-0.12485,0.00049 -0.24526,-0.04632 -0.337,-0.131c-0.363,-0.332 -3.558,-3.283 -4.126,-4.681c-0.09289,-0.25304 0.03152,-0.53416 0.28127,-0.63557c0.24975,-0.10141 0.53492,0.0134 0.64473,0.25957c0.409,1.007 2.936,3.459 3.875,4.319c0.15234,0.13929 0.20342,0.35787 0.12859,0.55025c-0.07483,0.19238 -0.26018,0.319 -0.46659,0.31875z"></path></g></g></svg>