<svg version="1.1" xmlns="http://www.w3.org/2000/svg" xmlns:xlink="http://www.w3.org/1999/xlink" width="64px" height="64px" viewBox="0,0,256,256"><g fill="#101095" fill-rule="nonzero" stroke="none" stroke-width="1" stroke-linecap="butt" stroke-linejoin="miter" stroke-miterlimit="10" stroke-dasharray="" stroke-dashoffset="0" font-family="none" font-weight="none" font-size="none" text-anchor="none" style="mix-blend-mode: normal"><g transform="translate(0,0) scale(4,4)"><g><path d="M34.021,41c-0.82843,0 -1.5,-0.67157 -1.5,-1.5c0.00034,-4.07058 2.52774,-7.71321 6.34063,-9.13851c3.81289,-1.4253 8.10998,-0.33372 10.78037,2.73851c0.35921,0.40342 0.47377,0.96881 0.29994,1.48023c-0.17384,0.51142 -0.60922,0.88989 -1.13987,0.99084c-0.53064,0.10095 -1.07459,-0.0912 -1.42407,-0.50307c-1.84927,-2.12775 -4.82519,-2.88383 -7.46581,-1.8968c-2.64062,0.98703 -4.39098,3.50973 -4.39119,6.3288c0,0.82843 -0.67157,1.5 -1.5,1.5z"></path><path d="M34.021,41c-0.51105,0.00017 -0.98703,-0.25986 -1.263,-0.69l-2.04,-3.183c-0.32963,-0.51416 -0.3146,-1.17685 0.038,-1.67554c0.3526,-0.49869 0.97235,-0.7338 1.567,-0.59446l5.284,1.243c0.59446,0.13991 1.04475,0.62625 1.13855,1.22971c0.0938,0.60346 -0.18761,1.20353 -0.71155,1.51729l-3.244,1.943c-0.23234,0.13892 -0.4983,0.21155 -0.769,0.21zM42.277,49.26c-3.03989,0.00987 -5.90833,-1.40695 -7.748,-3.827c-0.49903,-0.65768 -0.3728,-1.59498 0.28244,-2.09721c0.65524,-0.50223 1.59314,-0.38057 2.09856,0.27221c1.75926,2.30003 4.78851,3.22338 7.53161,2.29574c2.7431,-0.92764 4.59018,-3.50003 4.59239,-6.39574c0,-0.82843 0.67157,-1.5 1.5,-1.5c0.82843,0 1.5,0.67157 1.5,1.5c-0.00882,5.38418 -4.37282,9.74594 -9.757,9.752z"></path><path d="M52.574,44.186c-0.1155,0.00003 -0.23061,-0.01339 -0.343,-0.04l-5.284,-1.246c-0.59432,-0.14019 -1.04434,-0.62665 -1.13792,-1.23007c-0.09358,-0.60342 0.18797,-1.20333 0.71192,-1.51693l3.244,-1.94c0.69505,-0.41558 1.59447,-0.20444 2.032,0.477l2.04,3.183c0.29622,0.4617 0.31679,1.04828 0.05363,1.5296c-0.26316,0.48131 -0.76807,0.78059 -1.31663,0.7804z"></path><path d="M42.233,57.161c-9.75185,0 -17.65745,-7.90515 -17.658,-17.657c-0.00055,-9.75185 7.90415,-17.6579 17.656,-17.659c9.75185,-0.0011 17.65834,7.90315 17.66,17.655c-0.00992,9.74862 -7.90938,17.64943 -17.658,17.661zM42.233,24.845c-5.92888,0 -11.27391,3.57163 -13.54251,9.04932c-2.2686,5.47769 -1.01398,11.78259 3.1788,15.97451c4.19278,4.19192 10.49794,5.44526 15.97516,3.17553c5.47722,-2.26973 9.04776,-7.61548 9.04655,-13.54436c-0.01047,-8.09056 -6.56744,-14.64619 -14.658,-14.655zM36.512,20.525h-30.903c-0.82843,0 -1.5,-0.67157 -1.5,-1.5v-8.3c0.00276,-2.14699 1.74401,-3.886 3.891,-3.886h26.126c2.14526,0.0022 3.8838,1.74074 3.886,3.886v8.3c0,0.82843 -0.67157,1.5 -1.5,1.5zM7.112,17.525h27.9v-6.8c-0.00055,-0.4891 -0.3969,-0.88545 -0.886,-0.886h-26.126c-0.4891,0.00055 -0.88545,0.3969 -0.886,0.886z"></path><path d="M10.859,15.18c-0.39792,0.00229 -0.77986,-0.1564 -1.059,-0.44c-0.28175,-0.28087 -0.44038,-0.66217 -0.441,-1.06c0.00224,-0.39751 0.16063,-0.77821 0.441,-1.06c0.06991,-0.06845 0.14703,-0.12914 0.23,-0.181c0.08123,-0.05586 0.16843,-0.10248 0.26,-0.139c0.08919,-0.04073 0.18282,-0.07093 0.279,-0.09c0.19497,-0.04001 0.39603,-0.04001 0.591,0c0.09587,0.02026 0.18937,0.05042 0.279,0.09c0.09079,0.03884 0.1781,0.08534 0.261,0.139c0.07979,0.05203 0.15357,0.11273 0.22,0.181c0.27982,0.282 0.4375,0.66274 0.439,1.06c0,0.82843 -0.67157,1.5 -1.5,1.5zM29.4,31.2h-23.79c-0.82843,0 -1.5,-0.67157 -1.5,-1.5v-10.68c0,-0.82843 0.67157,-1.5 1.5,-1.5h30.9c0.82843,0 1.5,0.67157 1.5,1.5v5.38c0,0.82843 -0.67157,1.5 -1.5,1.5c-0.82843,0 -1.5,-0.67157 -1.5,-1.5v-3.88h-27.9v7.68h22.29c0.82843,0 1.5,0.67157 1.5,1.5c0,0.82843 -0.67157,1.5 -1.5,1.5z"></path><path d="M10.859,25.859c-0.19476,-0.001 -0.38766,-0.03795 -0.569,-0.109c-0.1824,-0.07863 -0.34857,-0.19054 -0.49,-0.33c-0.13898,-0.13999 -0.24818,-0.30667 -0.321,-0.49c-0.07998,-0.17969 -0.12088,-0.37432 -0.12,-0.571c0.00088,-0.39749 0.15949,-0.77837 0.441,-1.059c0.5936,-0.56533 1.5264,-0.56533 2.12,0c0.2794,0.28187 0.43703,0.66212 0.439,1.059c0.00495,0.39883 -0.1537,0.78227 -0.439,1.061c-0.13837,0.13901 -0.30151,0.25093 -0.481,0.33c-0.18508,0.07136 -0.38164,0.1083 -0.58,0.109zM26.1,41.88h-18.11c-2.14448,-0.00551 -3.88001,-1.74551 -3.88,-3.89v-8.29c-0.00056,-0.83029 0.66973,-1.50505 1.5,-1.51h23.8c0.82843,0 1.5,0.67157 1.5,1.5c0,0.82843 -0.67157,1.5 -1.5,1.5h-22.3v6.8c-0.00167,0.48833 0.39169,0.88615 0.88,0.89h18.11c0.82843,0 1.5,0.67157 1.5,1.5c0,0.82843 -0.67157,1.5 -1.5,1.5z"></path><path d="M10.859,36.54c-0.19602,0.00066 -0.38994,-0.04024 -0.569,-0.12c-0.18385,-0.07136 -0.35075,-0.18035 -0.49,-0.32c-0.13945,-0.14 -0.2487,-0.30711 -0.321,-0.491c-0.07996,-0.17899 -0.12087,-0.37296 -0.12,-0.569c0.00036,-0.10078 0.01075,-0.20127 0.031,-0.3c0.02036,-0.09604 0.05018,-0.18983 0.089,-0.28c0.03957,-0.09049 0.08674,-0.17747 0.141,-0.26c0.05128,-0.08036 0.11168,-0.15452 0.18,-0.221c0.43436,-0.42187 1.07522,-0.5509 1.639,-0.33c0.091,0.04 0.17,0.091 0.261,0.141c0.07994,0.05488 0.1537,0.11825 0.22,0.189c0.28126,0.28144 0.43918,0.66311 0.439,1.061c0.00271,0.3981 -0.15561,0.78039 -0.439,1.06c-0.13613,0.1392 -0.30001,0.24822 -0.481,0.32c-0.18282,0.08009 -0.3804,0.12097 -0.58,0.12z"></path></g></g></g></svg>