<svg version="1.1" xmlns="http://www.w3.org/2000/svg" xmlns:xlink="http://www.w3.org/1999/xlink" width="64px" height="64px" viewBox="0,0,256,256"><g fill="#101095" fill-rule="nonzero" stroke="none" stroke-width="1" stroke-linecap="butt" stroke-linejoin="miter" stroke-miterlimit="10" stroke-dasharray="" stroke-dashoffset="0" font-family="none" font-weight="none" font-size="none" text-anchor="none" style="mix-blend-mode: normal"><g transform="translate(0.29156,0.08756) scale(4,4)"><path d="M63.62,31.22l-24,-19c-0.33812,-0.31157 -0.84512,-0.35243 -1.22877,-0.09903c-0.38365,0.2534 -0.54508,0.73575 -0.39123,1.16903l3.7,11.89l-40.84,5.82c-0.55228,0 -1,0.44772 -1,1c0,0.55228 0.44772,1 1,1l40.84,5.82l-3.7,11.89c-0.12727,0.42067 0.03503,0.87513 0.4,1.12c0.17677,0.11917 0.38699,0.17874 0.6,0.17c0.22556,-0.00131 0.44406,-0.07884 0.62,-0.22l24,-19c0.23657,-0.1898 0.37422,-0.4767 0.37422,-0.78c0,-0.3033 -0.13765,-0.5902 -0.37422,-0.78zM40.9,48.22l3.1,-9.93c0.08355,-0.28088 0.03968,-0.58428 -0.12,-0.83c-0.15688,-0.24457 -0.41237,-0.40882 -0.7,-0.45l-35.11,-5.01l35.07,-5c0.28763,-0.04118 0.54312,-0.20543 0.7,-0.45c0.15968,-0.24572 0.20355,-0.54912 0.12,-0.83l-3.06,-9.94l20.49,16.22z"></path></g></g></svg>