<svg version="1.1" xmlns="http://www.w3.org/2000/svg" xmlns:xlink="http://www.w3.org/1999/xlink" width="800px" height="800px" viewBox="0,0,256,256"><g fill="#8ce7f2" fill-rule="evenodd" stroke="none" stroke-width="1" stroke-linecap="butt" stroke-linejoin="miter" stroke-miterlimit="10" stroke-dasharray="" stroke-dashoffset="0" font-family="none" font-weight="none" font-size="none" text-anchor="none" style="mix-blend-mode: normal"><g transform="scale(10.66667,10.66667)"><path d="M3.46447,3.46447c-1.46447,1.46446 -1.46447,3.82148 -1.46447,8.53553c0,4.714 0,7.0711 1.46447,8.5355c1.46446,1.4645 3.82148,1.4645 8.53553,1.4645c4.714,0 7.0711,0 8.5355,-1.4645c1.4645,-1.4644 1.4645,-3.8215 1.4645,-8.5355c0,-4.71405 0,-7.07107 -1.4645,-8.53553c-1.4644,-1.46447 -3.8215,-1.46447 -8.5355,-1.46447c-4.71405,0 -7.07107,0 -8.53553,1.46447zM5.46058,11.0833c0.37275,-3.28342 3.16348,-5.8333 6.54902,-5.8333c1.982,0 3.7606,0.87471 4.9679,2.25653c0.2725,0.31193 0.2406,0.78573 -0.0714,1.05826c-0.3119,0.27254 -0.7857,0.2406 -1.0582,-0.07132c-0.9343,-1.06938 -2.3069,-1.74347 -3.8383,-1.74347c-2.55745,0 -4.67318,1.88219 -5.03628,4.3333h0.36322c0.30344,0 0.57699,0.1829 0.69301,0.4633c0.11603,0.2803 0.05167,0.603 -0.16304,0.8174l-1.16826,1.1667c-0.29281,0.2924 -0.76712,0.2924 -1.05993,0l-1.16827,-1.1667c-0.21471,-0.2144 -0.27906,-0.5371 -0.16304,-0.8174c0.11603,-0.2804 0.38957,-0.4633 0.69301,-0.4633zM17.3018,10.4693c0.2929,-0.2924 0.7672,-0.2924 1.06,0l1.1682,1.1667c0.2148,0.2144 0.2791,0.5371 0.1631,0.8174c-0.116,0.2804 -0.3896,0.4633 -0.693,0.4633h-0.4606c-0.3727,3.2834 -3.1635,5.8333 -6.549,5.8333c-1.982,0 -3.76055,-0.8747 -4.96787,-2.2565c-0.27253,-0.312 -0.2406,-0.7858 0.07133,-1.0583c0.31193,-0.2725 0.78572,-0.2406 1.05826,0.0713c0.93432,1.0694 2.30688,1.7435 3.83828,1.7435c2.5575,0 4.6732,-1.8822 5.0363,-4.3333h-0.3632c-0.3035,0 -0.577,-0.1829 -0.6931,-0.4633c-0.116,-0.2803 -0.0516,-0.603 0.1631,-0.8174z"></path></g></g></svg>